# AST/ASF file generated using VICON BodyLanguage
# -----------------------------------------------
:version 1.10
:name VICON
:units
  mass 1.0
  length 0.45
  angle deg
:documentation
   .ast/.asf automatically generated from VICON data using
   VICON BodyBuilder and BodyLanguage model FoxedUp or BRILLIANT.MOD
:root
   order TX TY TZ RX RY RZ
   axis XYZ
   position 0 0 0  
   orientation 0 0 0 
:bonedata
  begin
     id 1 
     name lhipjoint
     direction 0.576517 -0.752066 0.319413 
     length 2.45433 
     axis 0 0 0  XYZ
  end
  begin
     id 2 
     name lfemur
     direction 0.34202 -0.939693 0  
     length 7.54459  
     axis 0 0 20  XYZ
    dof rx ry rz
    limits (-160.0 20.0)
           (-70.0 70.0)
           (-60.0 70.0)
  end
  begin
     id 3 
     name ltibia
     direction 0.34202 -0.939693 0   
     length 7.73986   
     axis 0 0 20   XYZ
    dof rx
    limits (-10.0 170.0)
  end
  begin
     id 4 
     name lfoot
     direction 0.090693 -0.249177 0.964202   
     length 2.28437   
     axis -90 7.62852e-016 20   XYZ
    dof rx rz
    limits (-45.0 90.0)
           (-70.0 20.0)
  end
  begin
     id 5 
     name ltoes
     direction 1.5356e-011 -4.21928e-011 1   
     length 1.14243   
     axis -90 7.62852e-016 20   XYZ
    dof rx
    limits (-90.0 20.0)
  end
  begin
     id 6 
     name rhipjoint
     direction -0.573937 -0.753736 0.320122   
     length 2.44889  
     axis 0 0 0  XYZ 
  end
  begin
     id 7 
     name rfemur
     direction -0.34202 -0.939693 0   
     length 7.50166   
     axis 0 0 -20   XYZ
    dof rx ry rz
    limits (-160.0 20.0)
           (-70.0 70.0)
           (-70.0 60.0)
  end
  begin
     id 8 
     name rtibia
     direction -0.34202 -0.939693 0   
     length 7.54266   
     axis 0 0 -20   XYZ
    dof rx
    limits (-10.0 170.0)
 end
 begin
     id 9 
     name rfoot
     direction -0.114017 -0.31326 0.942798   
     length 2.34212  
     axis -90 -7.62852e-016 -20   XYZ
    dof rx rz
    limits (-45.0 90.0)
           (-20.0 70.0)
  end
  begin
     id 10 
     name rtoes
     direction -1.53557e-011 -4.21867e-011 1   
     length 1.16246   
     axis -90 -7.62852e-016 -20   XYZ
    dof rx
    limits (-90.0 20.0)
  end
  begin
     id 11 
     name lowerback
     direction -0.0228371 0.999155 -0.034167   
     length 2.0537   
     axis 0 0 0   XYZ
    dof rx ry rz
    limits (-20.0 45.0)
           (-30.0 30.0)
           (-30.0 30.0)
  end
  begin
     id 12 
     name upperback
     direction 0.0198981 0.999794 0.00389455   
     length 2.05302   
     axis 0 0 0   XYZ
    dof rx ry rz
    limits (-20.0 45.0)
           (-30.0 30.0)
           (-30.0 30.0)
  end
  begin
     id 13 
     name thorax
     direction 0.0304566 0.99935 0.0192987   
     length 2.05315   
     axis 0 0 0   XYZ
    dof rx ry rz
    limits (-20.0 45.0)
           (-30.0 30.0)
           (-30.0 30.0)
  end
  begin
     id 14 
     name lowerneck
     direction -0.0196762 0.99417 0.106017   
     length 1.82056   
     axis 0 0 0   XYZ
    dof rx ry rz
    limits (-20.0 45.0)
           (-30.0 30.0)
           (-30.0 30.0)
  end
  begin
     id 15 
     name upperneck
     direction 0.00517787 0.9802 -0.197944   
     length 1.83835   
     axis 0 0 0   XYZ
    dof rx ry rz
    limits (-20.0 45.0)
           (-30.0 30.0)
           (-30.0 30.0)
  end
  begin
     id 16
     name head
     direction 0.00211419 0.996945 -0.078081  
     length 1.85629  
     axis 0 0 0   XYZ
    dof rx ry rz
    limits (-20.0 45.0)
           (-30.0 30.0)
           (-30.0 30.0)
  end
  begin
     id 17 
     name lclavicle
     direction 0.930001 0.365811 -0.0357824  
     length 3.81961  
     axis 0 0 0   XYZ
    dof ry rz
    limits (-20.0 10.0)
           (0.0 20.0)
  end
  begin
     id 18 
     name lhumerus
     direction 1 -4.48968e-011 -3.06644e-027   
     length 5.14507   
     axis 180 -30 -90   XYZ
    dof rx ry rz
    limits (-60.0 90.0)
           (-90.0 90.0)
           (-90.0 90.0)
  end
  begin
     id 19
     name lradius
     direction 1 -4.48965e-011 9.06925e-028   
     length 3.50646   
     axis 180 -30 -90   XYZ
    dof rx
    limits (-10.0 170.0)
  end
  begin
     id 20
     name lwrist
     direction 1 -4.48957e-011 1.03922e-027   
     length 1.75323   
     axis -2.56395e-016 90 90   XYZ
    dof ry
    limits (-180.0 0.0)
 end
  begin
     id 21 
     name lhand
     direction 1 -4.48967e-011 2.08017e-027   
     length 0.629969   
     axis -1.32723e-015 90 90   XYZ
    dof rx rz
    limits (-90.0 90.0)
           (-45.0 45.0)
  end
  begin
     id 22 
     name lfingers
     direction 1 -4.49089e-011 4.20095e-027   
     length 0.507897   
     axis -2.6545e-015 90 90   XYZ
    dof rx
    limits (0.0 90.0)
  end
  begin
     id 23
     name lthumb
     direction 0.707107 -6.35001e-011 0.707107   
     length 0.729241   
     axis -90 45 5.05613e-014   XYZ
    dof rx rz
    limits (-45.0 45.0)
           (-45.0 45.0)
  end
  begin
     id 24 
     name rclavicle
     direction -0.881882 0.464123 -0.0829113   
     length 3.47515  
     axis 0 0 0   XYZ 
    dof ry rz
    limits (-10.0 20.0)
           (-20.0 0.0)
  end
  begin
     id 25 
     name rhumerus
     direction -1 -4.48961e-011 -1.55672e-027  
     length 5.232   
     axis 180 30 90   XYZ
    dof rx ry rz
    limits (-90.0 60.0)
           (-90.0 90.0)
           (-90.0 90.0)
  end
  begin
     id 26 
     name rradius
     direction -1 -4.48963e-011 6.18178e-029   
     length 3.65641   
     axis 180 30 90   XYZ
    dof rx
    limits (-10.0 170.0)
  end
  begin
     id 27 
     name rwrist
     direction -1 -4.48982e-011 1.04136e-027   
     length 1.8282   
     axis -2.56395e-016 -90 -90   XYZ
    dof ry
    limits (-180.0 0.0)
  end
  begin
     id 28
     name rhand
     direction -1 -4.48929e-011 2.07378e-027   
     length 0.656807   
     axis -1.32723e-015 -90 -90   XYZ
    dof rx rz
    limits (-90.0 90.0)
           (-45.0 45.0)
  end
  begin
     id 29
     name rfingers
     direction -1 -4.489e-011 4.13816e-027   
     length 0.529535   
     axis -2.6545e-015 -90 -90   XYZ
    dof rx
    limits (0.0 90.0)
  end
  begin
     id 30
     name rthumb
     direction -0.707107 -6.34843e-011 0.707107   
     length 0.760309   
     axis -90 -45 -5.05613e-014   XYZ
    dof rx rz
    limits (-45.0 45.0)
           (-45.0 45.0)
  end
:hierarchy
  begin
    root lhipjoint rhipjoint lowerback
    lhipjoint lfemur
    lfemur ltibia
    ltibia lfoot
    lfoot ltoes
    rhipjoint rfemur
    rfemur rtibia
    rtibia rfoot
    rfoot rtoes
    lowerback upperback
    upperback thorax
    thorax lowerneck lclavicle rclavicle
    lowerneck upperneck
    upperneck head
    lclavicle lhumerus
    lhumerus lradius
    lradius lwrist
    lwrist lhand lthumb
    lhand lfingers
    rclavicle rhumerus
    rhumerus rradius
    rradius rwrist
    rwrist rhand rthumb
    rhand rfingers
  end

#!OML:ASF H:\ManfredETheater\Project 1\Capture day 1\Session 1\subject.ASF
:FULLY-SPECIFIED
:DEGREES
16
root 0.690585 17.1583 32.7503 -175.147 -6.4406 177.908
lowerback 4.27148 -0.647412 -3.33057
upperback -2.88632 -1.04218 1.86882
thorax -5.30487 -0.376327 3.91088
lowerneck -19.2121 -0.0683618 -1.93933
upperneck 26.6821 -0.0366023 -1.2601
head 11.9598 -0.751494 -0.22642
rclavicle 3.86388e-015 4.05521e-014
rhumerus -35.4987 -11.795 -76.8268
rradius 30.7242
rwrist 1.9732
rhand -19.8986 -12.9902
rfingers 7.12502
rthumb 6.43773 -42.8724
lclavicle 3.86388e-015 4.05521e-014
lhumerus -36.1925 7.03292 83.5186
lradius 31.8507
lwrist -15.316
lhand -8.70851 9.20081
lfingers 7.12502
lthumb 17.227 38.4572
rfemur -31.0283 -3.19912 15.1971
rtibia 35.6335
rfoot -5.68172 -5.85881
rtoes 12.1005
lfemur -10.9879 -5.22309 -25.6131
ltibia 32.1113
lfoot -22.4838 -0.681769
ltoes 9.11465
17
root 0.688775 17.1585 32.7495 -175.159 -6.4678 177.904
lowerback 4.28489 -0.662381 -3.34972
upperback -2.88982 -1.06368 1.87341
thorax -5.31392 -0.385918 3.92872
lowerneck -19.2288 -0.064784 -1.92995
upperneck 26.6916 -0.0335094 -1.26165
head 11.9669 -0.749548 -0.228273
rclavicle -8.45456e-015 1.03368e-014
rhumerus -35.4852 -11.7737 -76.8353
rradius 30.7288
rwrist 1.95774
rhand -19.913 -12.9746
rfingers 7.12502
rthumb 6.42382 -42.8571
lclavicle -8.45456e-015 1.03368e-014
lhumerus -36.1924 6.97407 83.5195
lradius 31.8369
lwrist -15.3164
lhand -8.69229 9.20197
lfingers 7.12502
lthumb 17.2426 38.457
rfemur -31.0063 -3.20719 15.1835
rtibia 35.6334
rfoot -5.68487 -5.87731
rtoes 12.0832
lfemur -10.9657 -5.214 -25.619
ltibia 32.098
lfoot -22.4779 -0.722724
ltoes 9.11543
18
root 0.686999 17.1587 32.7487 -175.17 -6.49159 177.902
lowerback 4.2956 -0.676003 -3.36754
upperback -2.88914 -1.08311 1.87676
thorax -5.31725 -0.394697 3.94419
lowerneck -19.2524 -0.0628577 -1.91944
upperneck 26.6979 -0.0320947 -1.26306
head 11.9741 -0.747827 -0.230462
rclavicle -4.0316e-015 -4.85035e-014
rhumerus -35.4639 -11.7563 -76.8444
rradius 30.7319
rwrist 1.94603
rhand -19.92 -12.96
rfingers 7.12502
rthumb 6.41702 -42.8428
lclavicle -4.0316e-015 -4.85035e-014
lhumerus -36.1826 6.91252 83.523
lradius 31.8236
lwrist -15.3169
lhand -8.68395 9.19849
lfingers 7.12502
lthumb 17.2506 38.4528
rfemur -30.9847 -3.21174 15.1708
rtibia 35.6324
rfoot -5.6881 -5.89579
rtoes 12.0664
lfemur -10.9435 -5.20454 -25.6244
ltibia 32.0854
lfoot -22.4732 -0.760163
ltoes 9.11781
19
root 0.685202 17.1589 32.7479 -175.181 -6.51211 177.899
lowerback 4.30631 -0.687862 -3.38348
upperback -2.88759 -1.1001 1.87771
thorax -5.31994 -0.402385 3.95585
lowerneck -19.2777 -0.0622549 -1.90724
upperneck 26.7014 -0.0329566 -1.26325
head 11.9805 -0.746544 -0.232782
rclavicle -1.12438e-015 8.74653e-015
rhumerus -35.4418 -11.7424 -76.8539
rradius 30.7335
rwrist 1.9356
rhand -19.9227 -12.9371
rfingers 7.12502
rthumb 6.41444 -42.82
lclavicle -1.12438e-015 8.74653e-015
lhumerus -36.1681 6.84615 83.5284
lradius 31.8111
lwrist -15.3157
lhand -8.68772 9.19158
lfingers 7.12502
lthumb 17.247 38.4462
rfemur -30.9638 -3.21358 15.1581
rtibia 35.631
rfoot -5.69121 -5.91332
rtoes 12.0509
lfemur -10.9216 -5.19595 -25.6305
ltibia 32.0732
lfoot -22.4691 -0.792179
ltoes 9.12145
20
root 0.683469 17.1591 32.7471 -175.193 -6.53229 177.9
lowerback 4.31582 -0.698729 -3.39612
upperback -2.88346 -1.11545 1.8777
thorax -5.31942 -0.409488 3.96443
lowerneck -19.3051 -0.0634251 -1.89419
upperneck 26.702 -0.0364936 -1.26204
head 11.9863 -0.745931 -0.235089
rclavicle 1.5791e-014 2.38542e-014
rhumerus -35.4165 -11.7319 -76.8638
rradius 30.7331
rwrist 1.92589
rhand -19.9227 -12.9055
rfingers 7.12502
rthumb 6.41442 -42.7883
lclavicle 1.5791e-014 2.38542e-014
lhumerus -36.1456 6.77653 83.5356
lradius 31.7976
lwrist -15.3122
lhand -8.70083 9.17596
lfingers 7.12502
lthumb 17.2344 38.4317
rfemur -30.9414 -3.2126 15.1484
rtibia 35.6291
rfoot -5.69627 -5.93268
rtoes 12.0357
lfemur -10.8994 -5.189 -25.6335
ltibia 32.0621
lfoot -22.4656 -0.822163
ltoes 9.13131
21
root 0.681746 17.1592 32.7463 -175.205 -6.55066 177.899
lowerback 4.3288 -0.709517 -3.41129
upperback -2.88365 -1.13112 1.87754
thorax -5.32537 -0.416476 3.97448
lowerneck -19.3211 -0.0640053 -1.88287
upperneck 26.7005 -0.0400379 -1.2592
head 11.9888 -0.745449 -0.236458
rclavicle -2.44878e-014 -1.11319e-014
rhumerus -35.3993 -11.7155 -76.8715
rradius 30.7324
rwrist 1.91738
rhand -19.9167 -12.864
rfingers 7.12502
rthumb 6.42021 -42.7467
lclavicle -2.44878e-014 -1.11319e-014
lhumerus -36.1286 6.71082 83.5427
lradius 31.7846
lwrist -15.3073
lhand -8.71778 9.1549
lfingers 7.12502
lthumb 17.2181 38.4121
rfemur -30.9186 -3.21044 15.1372
rtibia 35.6273
rfoot -5.70282 -5.95115
rtoes 12.0236
lfemur -10.8769 -5.1823 -25.6382
ltibia 32.0515
lfoot -22.4621 -0.850409
ltoes 9.14783
22
root 0.680034 17.1594 32.7455 -175.218 -6.56762 177.901
lowerback 4.3484 -0.720457 -3.4271
upperback -2.89071 -1.14742 1.87929
thorax -5.34223 -0.423429 3.98725
lowerneck -19.3216 -0.0640228 -1.87476
upperneck 26.6968 -0.0436092 -1.25473
head 11.9875 -0.745391 -0.236655
rclavicle 2.35746e-014 -3.81667e-014
rhumerus -35.3944 -11.6887 -76.876
rradius 30.7324
rwrist 1.90729
rhand -19.9088 -12.8121
rfingers 7.12502
rthumb 6.42783 -42.6945
lclavicle 2.35746e-014 -3.81667e-014
lhumerus -36.125 6.64889 83.5507
lradius 31.7766
lwrist -15.2996
lhand -8.7286 9.13996
lfingers 7.12502
lthumb 17.2077 38.3981
rfemur -30.8957 -3.20601 15.1284
rtibia 35.6256
rfoot -5.70974 -5.97013
rtoes 12.0105
lfemur -10.8546 -5.17678 -25.6409
ltibia 32.0422
lfoot -22.4594 -0.875906
ltoes 9.16421
23
root 0.678323 17.1595 32.7446 -175.231 -6.58568 177.903
lowerback 4.37723 -0.732571 -3.44602
upperback -2.90675 -1.166 1.8837
thorax -5.37352 -0.430955 4.00521
lowerneck -19.3044 -0.0629767 -1.87204
upperneck 26.6939 -0.0465502 -1.24791
head 11.9829 -0.745836 -0.234998
rclavicle 9.19379e-016 -1.11319e-014
rhumerus -35.4057 -11.6497 -76.8751
rradius 30.7323
rwrist 1.89729
rhand -19.9045 -12.7577
rfingers 7.12502
rthumb 6.43197 -42.6401
lclavicle 9.19379e-016 -1.11319e-014
lhumerus -36.1388 6.59047 83.5601
lradius 31.7738
lwrist -15.288
lhand -8.72673 9.13396
lfingers 7.12502
lthumb 17.2095 38.3919
rfemur -30.8707 -3.20164 15.1203
rtibia 35.6244
rfoot -5.71873 -5.99021
rtoes 12.0004
lfemur -10.8309 -5.17311 -25.6428
ltibia 32.0331
lfoot -22.4569 -0.900136
ltoes 9.17789
24
root 0.676627 17.1596 32.7437 -175.245 -6.60358 177.905
lowerback 4.41796 -0.74555 -3.47021
upperback -2.93414 -1.18675 1.89116
thorax -5.42322 -0.438787 4.03009
lowerneck -19.2665 -0.0602871 -1.87453
upperneck 26.6916 -0.0480859 -1.2397
head 11.9743 -0.746615 -0.231745
rclavicle -8.00729e-015 4.77083e-015
rhumerus -35.4368 -11.5975 -76.8673
rradius 30.7337
rwrist 1.88606
rhand -19.9023 -12.7036
rfingers 7.12502
rthumb 6.43414 -42.5859
lclavicle -8.00729e-015 4.77083e-015
lhumerus -36.1743 6.53731 83.5707
lradius 31.7776
lwrist -15.2752
lhand -8.70841 9.13802
lfingers 7.12502
lthumb 17.2271 38.3944
rfemur -30.8457 -3.19721 15.112
rtibia 35.6233
rfoot -5.72745 -6.01011
rtoes 11.9952
lfemur -10.8074 -5.1711 -25.6452
ltibia 32.0252
lfoot -22.4542 -0.92171
ltoes 9.18253
25
root 0.674888 17.1598 32.7428 -175.258 -6.6198 177.906
lowerback 4.46831 -0.758718 -3.49745
upperback -2.96956 -1.2085 1.90005
thorax -5.48674 -0.446566 4.05876
lowerneck -19.2184 -0.056415 -1.87975
upperneck 26.6918 -0.0486707 -1.23076
head 11.9647 -0.747615 -0.22767
rclavicle -1.5996e-014 7.95139e-016
rhumerus -35.4804 -11.5348 -76.8558
rradius 30.735
rwrist 1.8737
rhand -19.9086 -12.6526
rfingers 7.12502
rthumb 6.42802 -42.535
lclavicle -1.5996e-014 7.95139e-016
lhumerus -36.2237 6.4892 83.5816
lradius 31.7871
lwrist -15.262
lhand -8.68294 9.14799
lfingers 7.12502
lthumb 17.2516 38.4022
rfemur -30.821 -3.19097 15.1029
rtibia 35.6221
rfoot -5.73578 -6.03021
rtoes 11.9956
lfemur -10.7841 -5.16999 -25.6486
ltibia 32.0175
lfoot -22.4514 -0.940596
ltoes 9.18342
26
root 0.673141 17.1599 32.742 -175.271 -6.63216 177.909
lowerback 4.5234 -0.77114 -3.52631
upperback -3.01042 -1.2297 1.91116
thorax -5.5587 -0.453706 4.09093
lowerneck -19.1605 -0.0519155 -1.88798
upperneck 26.6915 -0.0484521 -1.22157
head 11.9529 -0.748791 -0.222872
rclavicle -1.68594e-014 3.10104e-014
rhumerus -35.5317 -11.4666 -76.84
rradius 30.7356
rwrist 1.86239
rhand -19.9185 -12.6084
rfingers 7.12502
rthumb 6.41851 -42.4911
lclavicle -1.68594e-014 3.10104e-014
lhumerus -36.2824 6.44629 83.5935
lradius 31.8009
lwrist -15.2478
lhand -8.66425 9.1557
lfingers 7.12502
lthumb 17.2696 38.4084
rfemur -30.7981 -3.17998 15.0954
rtibia 35.6202
rfoot -5.74308 -6.05127
rtoes 12.0001
lfemur -10.7627 -5.16817 -25.6505
ltibia 32.0107
lfoot -22.4484 -0.955461
ltoes 9.16931
